{
	"asset":{
		"generator":"Khronos glTF Blender I/O v4.1.63",
		"version":"2.0"
	},
	"scene":0,
	"scenes":[
		{
			"name":"Scene",
			"nodes":[
				0
			]
		}
	],
	"nodes":[
		{
			"mesh":0,
			"name":"Sphere"
		}
	],
	"meshes":[
		{
			"name":"Sphere.001",
			"primitives":[
				{
					"attributes":{
						"POSITION":0,
						"NORMAL":1,
						"TEXCOORD_0":2,
						"TANGENT":3
					},
					"indices":4
				}
			]
		}
	],
	"accessors":[
		{
			"bufferView":0,
			"componentType":5126,
			"count":287,
			"max":[
				1,
				1,
				1
			],
			"min":[
				-0.9999999403953552,
				-1,
				-0.9999999403953552
			],
			"type":"VEC3"
		},
		{
			"bufferView":1,
			"componentType":5126,
			"count":287,
			"type":"VEC3"
		},
		{
			"bufferView":2,
			"componentType":5126,
			"count":287,
			"type":"VEC2"
		},
		{
			"bufferView":3,
			"componentType":5126,
			"count":287,
			"type":"VEC4"
		},
		{
			"bufferView":4,
			"componentType":5123,
			"count":1440,
			"type":"SCALAR"
		}
	],
	"bufferViews":[
		{
			"buffer":0,
			"byteLength":3444,
			"byteOffset":0,
			"target":34962
		},
		{
			"buffer":0,
			"byteLength":3444,
			"byteOffset":3444,
			"target":34962
		},
		{
			"buffer":0,
			"byteLength":2296,
			"byteOffset":6888,
			"target":34962
		},
		{
			"buffer":0,
			"byteLength":4592,
			"byteOffset":9184,
			"target":34962
		},
		{
			"buffer":0,
			"byteLength":2880,
			"byteOffset":13776,
			"target":34963
		}
	],
	"buffers":[
		{
			"byteLength":16656,
			"uri":"sphere.bin"
		}
	]
}
