{
	"asset":{
		"generator":"Khronos glTF Blender I/O v4.1.63",
		"version":"2.0"
	},
	"scene":0,
	"scenes":[
		{
			"name":"Scene",
			"nodes":[
				0,
				1,
				2,
				3,
				4,
				5,
				6,
				7
			]
		}
	],
	"nodes":[
		{
			"mesh":0,
			"name":"Mesh_0",
			"rotation":[
				-0.70710688829422,
				0,
				0,
				0.7071066498756409
			],
			"scale":[
				0.02539999969303608,
				0.025400003418326378,
				0.025400003418326378
			],
			"translation":[
				-8006.64990234375,
				-23.921417236328125,
				2375.951416015625
			]
		},
		{
			"mesh":1,
			"name":"Mesh_1",
			"rotation":[
				-0.70710688829422,
				0,
				0,
				0.7071066498756409
			],
			"scale":[
				0.02539999969303608,
				0.025400003418326378,
				0.025400003418326378
			],
			"translation":[
				-8006.64990234375,
				-23.921417236328125,
				2375.951416015625
			]
		},
		{
			"mesh":2,
			"name":"Mesh_2",
			"rotation":[
				-0.70710688829422,
				0,
				0,
				0.7071066498756409
			],
			"scale":[
				0.02539999969303608,
				0.025400003418326378,
				0.025400003418326378
			],
			"translation":[
				-8006.650390625,
				-23.921417236328125,
				2375.951416015625
			]
		},
		{
			"mesh":3,
			"name":"Mesh_3",
			"rotation":[
				-0.70710688829422,
				0,
				0,
				0.7071066498756409
			],
			"scale":[
				0.02539999969303608,
				0.025400003418326378,
				0.025400003418326378
			],
			"translation":[
				-8006.650390625,
				-23.921417236328125,
				2375.951416015625
			]
		},
		{
			"mesh":4,
			"name":"Mesh_4",
			"rotation":[
				-0.70710688829422,
				0,
				0,
				0.7071066498756409
			],
			"scale":[
				0.02539999969303608,
				0.025400003418326378,
				0.025400003418326378
			],
			"translation":[
				-8006.650390625,
				-23.921417236328125,
				2375.951416015625
			]
		},
		{
			"mesh":5,
			"name":"Mesh_5",
			"rotation":[
				-0.70710688829422,
				0,
				0,
				0.7071066498756409
			],
			"scale":[
				0.02539999969303608,
				0.025400003418326378,
				0.025400003418326378
			],
			"translation":[
				-8006.650390625,
				-23.921417236328125,
				2375.951416015625
			]
		},
		{
			"mesh":6,
			"name":"Mesh_6",
			"rotation":[
				-0.70710688829422,
				0,
				0,
				0.7071066498756409
			],
			"scale":[
				0.02539999969303608,
				0.025400003418326378,
				0.025400003418326378
			],
			"translation":[
				-8006.650390625,
				-23.921417236328125,
				2375.951416015625
			]
		},
		{
			"mesh":7,
			"name":"Mesh_7",
			"rotation":[
				0,
				-0.9460853338241577,
				0,
				0.3239174485206604
			],
			"scale":[
				0.0025706198066473007,
				0.0025706198066473007,
				0.00030847438029013574
			],
			"translation":[
				-68.440185546875,
				502.7425842285156,
				440.8690185546875
			]
		}
	],
	"materials":[
		{
			"name":"Global",
			"pbrMetallicRoughness":{
				"metallicFactor":0,
				"roughnessFactor":0.3715338706970215
			}
		}
	],
	"meshes":[
		{
			"name":"Mesh_0",
			"primitives":[
				{
					"attributes":{
						"POSITION":0,
						"NORMAL":1
					},
					"indices":2,
					"material":0
				}
			]
		},
		{
			"name":"Mesh_1",
			"primitives":[
				{
					"attributes":{
						"POSITION":3,
						"NORMAL":4
					},
					"indices":5,
					"material":0
				}
			]
		},
		{
			"name":"Mesh_2",
			"primitives":[
				{
					"attributes":{
						"POSITION":6,
						"NORMAL":7
					},
					"indices":8,
					"material":0
				}
			]
		},
		{
			"name":"Mesh_3",
			"primitives":[
				{
					"attributes":{
						"POSITION":9,
						"NORMAL":10
					},
					"indices":11,
					"material":0
				}
			]
		},
		{
			"name":"Mesh_4",
			"primitives":[
				{
					"attributes":{
						"POSITION":12,
						"NORMAL":13
					},
					"indices":14,
					"material":0
				}
			]
		},
		{
			"name":"Mesh_5",
			"primitives":[
				{
					"attributes":{
						"POSITION":15,
						"NORMAL":16
					},
					"indices":17,
					"material":0
				}
			]
		},
		{
			"name":"Mesh_6",
			"primitives":[
				{
					"attributes":{
						"POSITION":18,
						"NORMAL":19
					},
					"indices":20,
					"material":0
				}
			]
		},
		{
			"name":"Mesh_7",
			"primitives":[
				{
					"attributes":{
						"POSITION":21,
						"NORMAL":22
					},
					"indices":23,
					"material":0
				}
			]
		}
	],
	"accessors":[
		{
			"bufferView":0,
			"componentType":5126,
			"count":32934,
			"max":[
				364728.71875,
				167547.8125,
				21226.994140625
			],
			"min":[
				231152.203125,
				7096.716796875,
				-7.275957614183426e-12
			],
			"type":"VEC3"
		},
		{
			"bufferView":1,
			"componentType":5126,
			"count":32934,
			"type":"VEC3"
		},
		{
			"bufferView":2,
			"componentType":5123,
			"count":80925,
			"type":"SCALAR"
		},
		{
			"bufferView":3,
			"componentType":5126,
			"count":129881,
			"max":[
				346388.03125,
				133501.484375,
				29251.474609375
			],
			"min":[
				273529.4375,
				36238.19140625,
				-3.637978807091713e-12
			],
			"type":"VEC3"
		},
		{
			"bufferView":4,
			"componentType":5126,
			"count":129881,
			"type":"VEC3"
		},
		{
			"bufferView":5,
			"componentType":5125,
			"count":250776,
			"type":"SCALAR"
		},
		{
			"bufferView":6,
			"componentType":5126,
			"count":39782,
			"max":[
				337739.09375,
				117883.9921875,
				31587.990234375
			],
			"min":[
				301789.84375,
				55738.08984375,
				-7.275957614183426e-12
			],
			"type":"VEC3"
		},
		{
			"bufferView":7,
			"componentType":5126,
			"count":39782,
			"type":"VEC3"
		},
		{
			"bufferView":8,
			"componentType":5123,
			"count":64194,
			"type":"SCALAR"
		},
		{
			"bufferView":9,
			"componentType":5126,
			"count":744322,
			"max":[
				362535.875,
				172356.671875,
				38029.609375
			],
			"min":[
				231114.21875,
				7014.4384765625,
				-510.3616638183594
			],
			"type":"VEC3"
		},
		{
			"bufferView":10,
			"componentType":5126,
			"count":744322,
			"type":"VEC3"
		},
		{
			"bufferView":11,
			"componentType":5125,
			"count":1512168,
			"type":"SCALAR"
		},
		{
			"bufferView":12,
			"componentType":5126,
			"count":862689,
			"max":[
				364728.71875,
				168532.21875,
				52659.87109375
			],
			"min":[
				243090.265625,
				25210.501953125,
				-510.3616638183594
			],
			"type":"VEC3"
		},
		{
			"bufferView":13,
			"componentType":5126,
			"count":862689,
			"type":"VEC3"
		},
		{
			"bufferView":14,
			"componentType":5125,
			"count":1820439,
			"type":"SCALAR"
		},
		{
			"bufferView":15,
			"componentType":5126,
			"count":14516,
			"max":[
				307724.875,
				116387.4140625,
				12736.068359375
			],
			"min":[
				303490.5,
				112261.4375,
				-7.275957614183426e-12
			],
			"type":"VEC3"
		},
		{
			"bufferView":16,
			"componentType":5126,
			"count":14516,
			"type":"VEC3"
		},
		{
			"bufferView":17,
			"componentType":5123,
			"count":19938,
			"type":"SCALAR"
		},
		{
			"bufferView":18,
			"componentType":5126,
			"count":24,
			"max":[
				289733.1875,
				131037.9140625,
				38029.609375
			],
			"min":[
				289529.875,
				130834.59375,
				38029.609375
			],
			"type":"VEC3"
		},
		{
			"bufferView":19,
			"componentType":5126,
			"count":24,
			"type":"VEC3"
		},
		{
			"bufferView":20,
			"componentType":5123,
			"count":66,
			"type":"SCALAR"
		},
		{
			"bufferView":21,
			"componentType":5126,
			"count":2006,
			"max":[
				344.4504699707031,
				39.89802932739258,
				39.370079040527344
			],
			"min":[
				-0.025140535086393356,
				0,
				0
			],
			"type":"VEC3"
		},
		{
			"bufferView":22,
			"componentType":5126,
			"count":2006,
			"type":"VEC3"
		},
		{
			"bufferView":23,
			"componentType":5123,
			"count":5142,
			"type":"SCALAR"
		}
	],
	"bufferViews":[
		{
			"buffer":0,
			"byteLength":395208,
			"byteOffset":0,
			"target":34962
		},
		{
			"buffer":0,
			"byteLength":395208,
			"byteOffset":395208,
			"target":34962
		},
		{
			"buffer":0,
			"byteLength":161850,
			"byteOffset":790416,
			"target":34963
		},
		{
			"buffer":0,
			"byteLength":1558572,
			"byteOffset":952268,
			"target":34962
		},
		{
			"buffer":0,
			"byteLength":1558572,
			"byteOffset":2510840,
			"target":34962
		},
		{
			"buffer":0,
			"byteLength":1003104,
			"byteOffset":4069412,
			"target":34963
		},
		{
			"buffer":0,
			"byteLength":477384,
			"byteOffset":5072516,
			"target":34962
		},
		{
			"buffer":0,
			"byteLength":477384,
			"byteOffset":5549900,
			"target":34962
		},
		{
			"buffer":0,
			"byteLength":128388,
			"byteOffset":6027284,
			"target":34963
		},
		{
			"buffer":0,
			"byteLength":8931864,
			"byteOffset":6155672,
			"target":34962
		},
		{
			"buffer":0,
			"byteLength":8931864,
			"byteOffset":15087536,
			"target":34962
		},
		{
			"buffer":0,
			"byteLength":6048672,
			"byteOffset":24019400,
			"target":34963
		},
		{
			"buffer":0,
			"byteLength":10352268,
			"byteOffset":30068072,
			"target":34962
		},
		{
			"buffer":0,
			"byteLength":10352268,
			"byteOffset":40420340,
			"target":34962
		},
		{
			"buffer":0,
			"byteLength":7281756,
			"byteOffset":50772608,
			"target":34963
		},
		{
			"buffer":0,
			"byteLength":174192,
			"byteOffset":58054364,
			"target":34962
		},
		{
			"buffer":0,
			"byteLength":174192,
			"byteOffset":58228556,
			"target":34962
		},
		{
			"buffer":0,
			"byteLength":39876,
			"byteOffset":58402748,
			"target":34963
		},
		{
			"buffer":0,
			"byteLength":288,
			"byteOffset":58442624,
			"target":34962
		},
		{
			"buffer":0,
			"byteLength":288,
			"byteOffset":58442912,
			"target":34962
		},
		{
			"buffer":0,
			"byteLength":132,
			"byteOffset":58443200,
			"target":34963
		},
		{
			"buffer":0,
			"byteLength":24072,
			"byteOffset":58443332,
			"target":34962
		},
		{
			"buffer":0,
			"byteLength":24072,
			"byteOffset":58467404,
			"target":34962
		},
		{
			"buffer":0,
			"byteLength":10284,
			"byteOffset":58491476,
			"target":34963
		}
	],
	"buffers":[
		{
			"byteLength":58501760,
			"uri":"city.bin"
		}
	]
}
